<?xml version="1.0" standalone="no"?>
<!DOCTYPE svg PUBLIC "-//W3C//DTD SVG 20010904//EN"
 "http://www.w3.org/TR/2001/REC-SVG-20010904/DTD/svg10.dtd">
<svg version="1.0" xmlns="http://www.w3.org/2000/svg"
 width="256.000000pt" height="256.000000pt" viewBox="0 0 256.000000 256.000000"
 preserveAspectRatio="xMidYMid meet">
<metadata>
Created by potrace 1.14, written by Peter Selinger 2001-2017
</metadata>
<g transform="translate(0.000000,256.000000) scale(0.100000,-0.100000)"
fill="#000000" stroke="none">
<path d="M580 2541 c-85 -24 -125 -42 -180 -82 -69 -49 -136 -125 -174 -199
-63 -119 -65 -144 -66 -643 l0 -449 -39 -57 c-162 -238 -158 -572 10 -805 85
-116 211 -213 341 -260 103 -37 158 -45 278 -42 319 10 589 231 669 546 24 96
23 267 -4 355 -20 70 -75 183 -110 229 l-25 32 0 450 c-1 268 -5 469 -11 499
-28 135 -130 281 -251 358 -121 78 -301 106 -438 68z m247 -325 c17 -9 48 -33
67 -54 65 -66 66 -77 66 -629 l0 -493 40 -36 c23 -21 56 -68 78 -112 35 -72
37 -81 37 -172 0 -91 -2 -100 -38 -172 -101 -206 -328 -283 -534 -182 -85 41
-153 112 -192 202 -21 48 -25 73 -25 152 0 85 3 102 30 160 17 36 52 88 77
115 l47 49 0 496 c0 536 1 551 54 612 26 30 92 73 122 80 37 10 139 -1 171
-16z"/>
<path d="M666 1095 c-22 -24 -26 -37 -26 -91 0 -48 -3 -64 -14 -64 -8 0 -37
-20 -64 -45 -168 -151 -57 -418 170 -412 130 4 222 102 223 237 0 95 -49 178
-126 212 -25 11 -27 17 -31 80 -4 77 -17 96 -71 105 -30 5 -40 1 -61 -22z"/>
<path d="M1940 2537 c-120 -41 -202 -104 -265 -202 -46 -73 -67 -139 -71 -230
-4 -99 7 -150 51 -240 114 -234 401 -329 638 -212 165 83 260 234 261 417 1
109 -5 138 -48 224 -79 160 -228 255 -411 262 -73 3 -102 -1 -155 -19z m228
-324 c50 -37 66 -69 67 -133 0 -97 -57 -155 -155 -155 -86 0 -144 49 -156 132
-10 74 29 144 96 172 37 16 117 7 148 -16z"/>
</g>
</svg>
